<mxfile host="app.diagrams.net" agent="Mozilla/5.0 (Windows NT 10.0; Win64; x64) AppleWebKit/537.36 (KHTML, like Gecko) Chrome/127.0.0.0 Safari/537.36 OPR/113.0.0.0" version="24.7.16">
  <diagram name="Страница — 1" id="lbg7ffR3EiaJTP5XwaKE">
    <mxGraphModel dx="1018" dy="563" grid="1" gridSize="10" guides="1" tooltips="1" connect="1" arrows="1" fold="1" page="1" pageScale="1" pageWidth="827" pageHeight="1169" math="0" shadow="0">
      <root>
        <mxCell id="0" />
        <mxCell id="1" parent="0" />
        <mxCell id="ARTo58OZnLdZcZKK6a_Y-5" value="" style="group" vertex="1" connectable="0" parent="1">
          <mxGeometry x="320" y="320" width="110" height="50" as="geometry" />
        </mxCell>
        <mxCell id="ARTo58OZnLdZcZKK6a_Y-1" value="&lt;font style=&quot;font-size: 11px;&quot;&gt;GUI.dfm&lt;/font&gt;&lt;div style=&quot;font-size: 11px;&quot;&gt;&lt;font style=&quot;font-size: 11px;&quot;&gt;(главная игровая форма)&lt;/font&gt;&lt;/div&gt;" style="rounded=0;whiteSpace=wrap;html=1;" vertex="1" parent="ARTo58OZnLdZcZKK6a_Y-5">
          <mxGeometry x="15.71" width="94.29" height="50" as="geometry" />
        </mxCell>
        <mxCell id="ARTo58OZnLdZcZKK6a_Y-2" value="" style="rounded=0;whiteSpace=wrap;html=1;" vertex="1" parent="ARTo58OZnLdZcZKK6a_Y-5">
          <mxGeometry y="7.142857142857143" width="23.57142857142857" height="10.714285714285715" as="geometry" />
        </mxCell>
        <mxCell id="ARTo58OZnLdZcZKK6a_Y-4" value="" style="rounded=0;whiteSpace=wrap;html=1;" vertex="1" parent="ARTo58OZnLdZcZKK6a_Y-5">
          <mxGeometry y="28.571428571428573" width="23.57142857142857" height="10.714285714285715" as="geometry" />
        </mxCell>
        <mxCell id="ARTo58OZnLdZcZKK6a_Y-6" value="" style="endArrow=open;dashed=1;html=1;rounded=0;exitX=1;exitY=0.5;exitDx=0;exitDy=0;endFill=0;entryX=0.5;entryY=1;entryDx=0;entryDy=0;entryPerimeter=0;" edge="1" parent="1" source="ARTo58OZnLdZcZKK6a_Y-1" target="ARTo58OZnLdZcZKK6a_Y-7">
          <mxGeometry width="50" height="50" relative="1" as="geometry">
            <mxPoint x="350" y="360" as="sourcePoint" />
            <mxPoint x="630" y="370" as="targetPoint" />
          </mxGeometry>
        </mxCell>
        <mxCell id="ARTo58OZnLdZcZKK6a_Y-7" value="" style="shape=cylinder3;whiteSpace=wrap;html=1;boundedLbl=1;backgroundOutline=1;size=15;rotation=90;" vertex="1" parent="1">
          <mxGeometry x="643.75" y="316.25" width="50" height="97.5" as="geometry" />
        </mxCell>
        <mxCell id="ARTo58OZnLdZcZKK6a_Y-8" value="&lt;font style=&quot;font-size: 10px;&quot;&gt;Music.wav&lt;/font&gt;&lt;div style=&quot;font-size: 10px;&quot;&gt;&lt;font style=&quot;font-size: 10px;&quot;&gt;(Музыка в игре)&lt;/font&gt;&lt;/div&gt;" style="text;html=1;align=center;verticalAlign=middle;whiteSpace=wrap;rounded=0;" vertex="1" parent="1">
          <mxGeometry x="630" y="350" width="60" height="30" as="geometry" />
        </mxCell>
        <mxCell id="ARTo58OZnLdZcZKK6a_Y-11" value="" style="endArrow=open;dashed=1;html=1;rounded=0;exitX=0;exitY=0.5;exitDx=0;exitDy=0;endFill=0;entryX=0.5;entryY=0;entryDx=0;entryDy=0;entryPerimeter=0;" edge="1" parent="1" source="ARTo58OZnLdZcZKK6a_Y-1" target="ARTo58OZnLdZcZKK6a_Y-9">
          <mxGeometry width="50" height="50" relative="1" as="geometry">
            <mxPoint x="140" y="403.75" as="sourcePoint" />
            <mxPoint x="330" y="423.75" as="targetPoint" />
          </mxGeometry>
        </mxCell>
        <mxCell id="ARTo58OZnLdZcZKK6a_Y-13" value="" style="group" vertex="1" connectable="0" parent="1">
          <mxGeometry x="86.25" y="350" width="97.5" height="50" as="geometry" />
        </mxCell>
        <mxCell id="ARTo58OZnLdZcZKK6a_Y-9" value="" style="shape=cylinder3;whiteSpace=wrap;html=1;boundedLbl=1;backgroundOutline=1;size=15;rotation=90;" vertex="1" parent="ARTo58OZnLdZcZKK6a_Y-13">
          <mxGeometry x="23.75" y="-23.75" width="50" height="97.5" as="geometry" />
        </mxCell>
        <mxCell id="ARTo58OZnLdZcZKK6a_Y-10" value="&lt;span style=&quot;font-size: 10px;&quot;&gt;справка2.chm&lt;/span&gt;&lt;div&gt;&lt;span style=&quot;font-size: 10px;&quot;&gt;(справка)&lt;/span&gt;&lt;/div&gt;" style="text;html=1;align=center;verticalAlign=middle;whiteSpace=wrap;rounded=0;" vertex="1" parent="ARTo58OZnLdZcZKK6a_Y-13">
          <mxGeometry x="13.75" y="10" width="46.25" height="30" as="geometry" />
        </mxCell>
        <mxCell id="ARTo58OZnLdZcZKK6a_Y-15" value="" style="group" vertex="1" connectable="0" parent="1">
          <mxGeometry x="110" y="290" width="80" height="40" as="geometry" />
        </mxCell>
        <mxCell id="ARTo58OZnLdZcZKK6a_Y-16" value="&lt;span style=&quot;text-align: left;&quot;&gt;GUI.pas&lt;/span&gt;" style="rounded=0;whiteSpace=wrap;html=1;" vertex="1" parent="ARTo58OZnLdZcZKK6a_Y-15">
          <mxGeometry x="11.425454545454544" width="68.57454545454546" height="40" as="geometry" />
        </mxCell>
        <mxCell id="ARTo58OZnLdZcZKK6a_Y-17" value="" style="rounded=0;whiteSpace=wrap;html=1;" vertex="1" parent="ARTo58OZnLdZcZKK6a_Y-15">
          <mxGeometry y="5.714285714285714" width="17.142857142857142" height="8.571428571428571" as="geometry" />
        </mxCell>
        <mxCell id="ARTo58OZnLdZcZKK6a_Y-18" value="" style="rounded=0;whiteSpace=wrap;html=1;" vertex="1" parent="ARTo58OZnLdZcZKK6a_Y-15">
          <mxGeometry y="22.857142857142858" width="17.142857142857142" height="8.571428571428571" as="geometry" />
        </mxCell>
        <mxCell id="ARTo58OZnLdZcZKK6a_Y-19" value="" style="endArrow=open;dashed=1;html=1;rounded=0;exitX=0.75;exitY=0;exitDx=0;exitDy=0;endFill=0;entryX=1;entryY=0.75;entryDx=0;entryDy=0;" edge="1" parent="1" source="ARTo58OZnLdZcZKK6a_Y-2" target="ARTo58OZnLdZcZKK6a_Y-16">
          <mxGeometry width="50" height="50" relative="1" as="geometry">
            <mxPoint x="346" y="355" as="sourcePoint" />
            <mxPoint x="194" y="385" as="targetPoint" />
          </mxGeometry>
        </mxCell>
        <mxCell id="ARTo58OZnLdZcZKK6a_Y-20" value="" style="group" vertex="1" connectable="0" parent="1">
          <mxGeometry x="240" y="230" width="120" height="50" as="geometry" />
        </mxCell>
        <mxCell id="ARTo58OZnLdZcZKK6a_Y-21" value="&lt;div style=&quot;&quot;&gt;&lt;span style=&quot;background-color: initial;&quot;&gt;Unit2.dfm&lt;/span&gt;&lt;/div&gt;&lt;div style=&quot;&quot;&gt;&lt;span style=&quot;background-color: initial;&quot;&gt;(Форма главного меню)&lt;/span&gt;&lt;/div&gt;" style="rounded=0;whiteSpace=wrap;html=1;align=center;" vertex="1" parent="ARTo58OZnLdZcZKK6a_Y-20">
          <mxGeometry x="17.138181818181817" width="102.8618181818182" height="50" as="geometry" />
        </mxCell>
        <mxCell id="ARTo58OZnLdZcZKK6a_Y-22" value="" style="rounded=0;whiteSpace=wrap;html=1;" vertex="1" parent="ARTo58OZnLdZcZKK6a_Y-20">
          <mxGeometry y="7.142857142857143" width="25.714285714285715" height="10.714285714285715" as="geometry" />
        </mxCell>
        <mxCell id="ARTo58OZnLdZcZKK6a_Y-23" value="" style="rounded=0;whiteSpace=wrap;html=1;" vertex="1" parent="ARTo58OZnLdZcZKK6a_Y-20">
          <mxGeometry y="28.571428571428573" width="25.714285714285715" height="10.714285714285715" as="geometry" />
        </mxCell>
        <mxCell id="ARTo58OZnLdZcZKK6a_Y-24" value="" style="endArrow=open;dashed=1;html=1;rounded=0;exitX=0.614;exitY=1.018;exitDx=0;exitDy=0;endFill=0;entryX=0.25;entryY=0;entryDx=0;entryDy=0;exitPerimeter=0;" edge="1" parent="1" source="ARTo58OZnLdZcZKK6a_Y-21" target="ARTo58OZnLdZcZKK6a_Y-1">
          <mxGeometry width="50" height="50" relative="1" as="geometry">
            <mxPoint x="348" y="337" as="sourcePoint" />
            <mxPoint x="200" y="330" as="targetPoint" />
          </mxGeometry>
        </mxCell>
        <mxCell id="ARTo58OZnLdZcZKK6a_Y-29" value="" style="group" vertex="1" connectable="0" parent="1">
          <mxGeometry x="70" y="160" width="120.00000000000001" height="50" as="geometry" />
        </mxCell>
        <mxCell id="ARTo58OZnLdZcZKK6a_Y-26" value="&lt;div style=&quot;&quot;&gt;Unit2.pas&lt;br&gt;&lt;/div&gt;" style="rounded=0;whiteSpace=wrap;html=1;align=center;" vertex="1" parent="ARTo58OZnLdZcZKK6a_Y-29">
          <mxGeometry x="17.138181818181817" width="102.8618181818182" height="50" as="geometry" />
        </mxCell>
        <mxCell id="ARTo58OZnLdZcZKK6a_Y-27" value="" style="rounded=0;whiteSpace=wrap;html=1;" vertex="1" parent="ARTo58OZnLdZcZKK6a_Y-29">
          <mxGeometry y="7.142857142857143" width="25.714285714285715" height="10.714285714285715" as="geometry" />
        </mxCell>
        <mxCell id="ARTo58OZnLdZcZKK6a_Y-28" value="" style="rounded=0;whiteSpace=wrap;html=1;" vertex="1" parent="ARTo58OZnLdZcZKK6a_Y-29">
          <mxGeometry y="28.571428571428573" width="25.714285714285715" height="10.714285714285715" as="geometry" />
        </mxCell>
        <mxCell id="ARTo58OZnLdZcZKK6a_Y-30" value="" style="endArrow=open;dashed=1;html=1;rounded=0;exitX=0.25;exitY=0;exitDx=0;exitDy=0;endFill=0;entryX=1;entryY=0.75;entryDx=0;entryDy=0;" edge="1" parent="1" source="ARTo58OZnLdZcZKK6a_Y-21" target="ARTo58OZnLdZcZKK6a_Y-26">
          <mxGeometry width="50" height="50" relative="1" as="geometry">
            <mxPoint x="320" y="291" as="sourcePoint" />
            <mxPoint x="369" y="330" as="targetPoint" />
          </mxGeometry>
        </mxCell>
        <mxCell id="ARTo58OZnLdZcZKK6a_Y-31" value="" style="group" vertex="1" connectable="0" parent="1">
          <mxGeometry x="210" y="60" width="120.00000000000001" height="50" as="geometry" />
        </mxCell>
        <mxCell id="ARTo58OZnLdZcZKK6a_Y-32" value="&lt;div style=&quot;&quot;&gt;Delphicraft.exe&lt;br&gt;&lt;/div&gt;&lt;div style=&quot;&quot;&gt;(Исполняемый файл)&lt;/div&gt;" style="rounded=0;whiteSpace=wrap;html=1;align=center;" vertex="1" parent="ARTo58OZnLdZcZKK6a_Y-31">
          <mxGeometry x="17.138181818181817" width="102.8618181818182" height="50" as="geometry" />
        </mxCell>
        <mxCell id="ARTo58OZnLdZcZKK6a_Y-33" value="" style="rounded=0;whiteSpace=wrap;html=1;" vertex="1" parent="ARTo58OZnLdZcZKK6a_Y-31">
          <mxGeometry y="7.142857142857143" width="25.714285714285715" height="10.714285714285715" as="geometry" />
        </mxCell>
        <mxCell id="ARTo58OZnLdZcZKK6a_Y-34" value="" style="rounded=0;whiteSpace=wrap;html=1;" vertex="1" parent="ARTo58OZnLdZcZKK6a_Y-31">
          <mxGeometry y="28.571428571428573" width="25.714285714285715" height="10.714285714285715" as="geometry" />
        </mxCell>
        <mxCell id="ARTo58OZnLdZcZKK6a_Y-35" value="" style="group" vertex="1" connectable="0" parent="1">
          <mxGeometry x="230" y="140" width="120.00000000000001" height="50" as="geometry" />
        </mxCell>
        <mxCell id="ARTo58OZnLdZcZKK6a_Y-36" value="&lt;div style=&quot;&quot;&gt;Delphicraft.dpr&lt;br&gt;&lt;/div&gt;&lt;div style=&quot;&quot;&gt;(файл проекта)&lt;/div&gt;" style="rounded=0;whiteSpace=wrap;html=1;align=center;" vertex="1" parent="ARTo58OZnLdZcZKK6a_Y-35">
          <mxGeometry x="17.138181818181817" width="102.8618181818182" height="50" as="geometry" />
        </mxCell>
        <mxCell id="ARTo58OZnLdZcZKK6a_Y-37" value="" style="rounded=0;whiteSpace=wrap;html=1;" vertex="1" parent="ARTo58OZnLdZcZKK6a_Y-35">
          <mxGeometry y="7.142857142857143" width="25.714285714285715" height="10.714285714285715" as="geometry" />
        </mxCell>
        <mxCell id="ARTo58OZnLdZcZKK6a_Y-38" value="" style="rounded=0;whiteSpace=wrap;html=1;" vertex="1" parent="ARTo58OZnLdZcZKK6a_Y-35">
          <mxGeometry y="28.571428571428573" width="25.714285714285715" height="10.714285714285715" as="geometry" />
        </mxCell>
        <mxCell id="ARTo58OZnLdZcZKK6a_Y-40" value="" style="endArrow=open;dashed=1;html=1;rounded=0;exitX=0.5;exitY=1;exitDx=0;exitDy=0;endFill=0;entryX=0.5;entryY=0;entryDx=0;entryDy=0;" edge="1" parent="1" source="ARTo58OZnLdZcZKK6a_Y-32" target="ARTo58OZnLdZcZKK6a_Y-36">
          <mxGeometry width="50" height="50" relative="1" as="geometry">
            <mxPoint x="320" y="291" as="sourcePoint" />
            <mxPoint x="369" y="330" as="targetPoint" />
          </mxGeometry>
        </mxCell>
        <mxCell id="ARTo58OZnLdZcZKK6a_Y-41" value="" style="endArrow=open;dashed=1;html=1;rounded=0;exitX=0.5;exitY=1;exitDx=0;exitDy=0;endFill=0;entryX=0.5;entryY=0;entryDx=0;entryDy=0;" edge="1" parent="1" source="ARTo58OZnLdZcZKK6a_Y-36" target="ARTo58OZnLdZcZKK6a_Y-21">
          <mxGeometry width="50" height="50" relative="1" as="geometry">
            <mxPoint x="289" y="120" as="sourcePoint" />
            <mxPoint x="309" y="150" as="targetPoint" />
          </mxGeometry>
        </mxCell>
        <mxCell id="ARTo58OZnLdZcZKK6a_Y-42" value="" style="group" vertex="1" connectable="0" parent="1">
          <mxGeometry x="560" y="413.75" width="110" height="50" as="geometry" />
        </mxCell>
        <mxCell id="ARTo58OZnLdZcZKK6a_Y-43" value="&lt;span style=&quot;font-size: 11px;&quot;&gt;Command.pas&lt;/span&gt;" style="rounded=0;whiteSpace=wrap;html=1;" vertex="1" parent="ARTo58OZnLdZcZKK6a_Y-42">
          <mxGeometry x="15.71" width="94.29" height="50" as="geometry" />
        </mxCell>
        <mxCell id="ARTo58OZnLdZcZKK6a_Y-44" value="" style="rounded=0;whiteSpace=wrap;html=1;" vertex="1" parent="ARTo58OZnLdZcZKK6a_Y-42">
          <mxGeometry y="7.142857142857143" width="23.57142857142857" height="10.714285714285715" as="geometry" />
        </mxCell>
        <mxCell id="ARTo58OZnLdZcZKK6a_Y-45" value="" style="rounded=0;whiteSpace=wrap;html=1;" vertex="1" parent="ARTo58OZnLdZcZKK6a_Y-42">
          <mxGeometry y="28.571428571428573" width="23.57142857142857" height="10.714285714285715" as="geometry" />
        </mxCell>
        <mxCell id="ARTo58OZnLdZcZKK6a_Y-46" value="" style="endArrow=open;dashed=1;html=1;rounded=0;exitX=1;exitY=1;exitDx=0;exitDy=0;endFill=0;entryX=0;entryY=0;entryDx=0;entryDy=0;" edge="1" parent="1" source="ARTo58OZnLdZcZKK6a_Y-1" target="ARTo58OZnLdZcZKK6a_Y-43">
          <mxGeometry width="50" height="50" relative="1" as="geometry">
            <mxPoint x="440" y="355" as="sourcePoint" />
            <mxPoint x="630" y="375" as="targetPoint" />
          </mxGeometry>
        </mxCell>
        <mxCell id="ARTo58OZnLdZcZKK6a_Y-48" value="" style="group" vertex="1" connectable="0" parent="1">
          <mxGeometry x="480" y="490" width="110" height="50" as="geometry" />
        </mxCell>
        <mxCell id="ARTo58OZnLdZcZKK6a_Y-49" value="&lt;span style=&quot;font-size: 11px;&quot;&gt;Gamelavels.pas&lt;/span&gt;" style="rounded=0;whiteSpace=wrap;html=1;" vertex="1" parent="ARTo58OZnLdZcZKK6a_Y-48">
          <mxGeometry x="15.71" width="94.29" height="50" as="geometry" />
        </mxCell>
        <mxCell id="ARTo58OZnLdZcZKK6a_Y-50" value="" style="rounded=0;whiteSpace=wrap;html=1;" vertex="1" parent="ARTo58OZnLdZcZKK6a_Y-48">
          <mxGeometry y="7.142857142857143" width="23.57142857142857" height="10.714285714285715" as="geometry" />
        </mxCell>
        <mxCell id="ARTo58OZnLdZcZKK6a_Y-51" value="" style="rounded=0;whiteSpace=wrap;html=1;" vertex="1" parent="ARTo58OZnLdZcZKK6a_Y-48">
          <mxGeometry y="28.571428571428573" width="23.57142857142857" height="10.714285714285715" as="geometry" />
        </mxCell>
        <mxCell id="ARTo58OZnLdZcZKK6a_Y-52" value="" style="endArrow=open;dashed=1;html=1;rounded=0;exitX=0.75;exitY=1;exitDx=0;exitDy=0;endFill=0;entryX=0.25;entryY=0;entryDx=0;entryDy=0;" edge="1" parent="1" source="ARTo58OZnLdZcZKK6a_Y-1" target="ARTo58OZnLdZcZKK6a_Y-49">
          <mxGeometry width="50" height="50" relative="1" as="geometry">
            <mxPoint x="440" y="380" as="sourcePoint" />
            <mxPoint x="489" y="400" as="targetPoint" />
          </mxGeometry>
        </mxCell>
        <mxCell id="ARTo58OZnLdZcZKK6a_Y-53" value="" style="group" vertex="1" connectable="0" parent="1">
          <mxGeometry x="235" y="510" width="110" height="50" as="geometry" />
        </mxCell>
        <mxCell id="ARTo58OZnLdZcZKK6a_Y-54" value="&lt;span style=&quot;font-size: 11px;&quot;&gt;GFonts.pas&lt;/span&gt;" style="rounded=0;whiteSpace=wrap;html=1;" vertex="1" parent="ARTo58OZnLdZcZKK6a_Y-53">
          <mxGeometry x="15.71" width="94.29" height="50" as="geometry" />
        </mxCell>
        <mxCell id="ARTo58OZnLdZcZKK6a_Y-55" value="" style="rounded=0;whiteSpace=wrap;html=1;" vertex="1" parent="ARTo58OZnLdZcZKK6a_Y-53">
          <mxGeometry y="7.142857142857143" width="23.57142857142857" height="10.714285714285715" as="geometry" />
        </mxCell>
        <mxCell id="ARTo58OZnLdZcZKK6a_Y-56" value="" style="rounded=0;whiteSpace=wrap;html=1;" vertex="1" parent="ARTo58OZnLdZcZKK6a_Y-53">
          <mxGeometry y="28.571428571428573" width="23.57142857142857" height="10.714285714285715" as="geometry" />
        </mxCell>
        <mxCell id="ARTo58OZnLdZcZKK6a_Y-57" value="" style="group" vertex="1" connectable="0" parent="1">
          <mxGeometry x="130" y="450" width="110" height="50" as="geometry" />
        </mxCell>
        <mxCell id="ARTo58OZnLdZcZKK6a_Y-58" value="&lt;span style=&quot;font-size: 11px;&quot;&gt;Resurce.pas&lt;/span&gt;" style="rounded=0;whiteSpace=wrap;html=1;" vertex="1" parent="ARTo58OZnLdZcZKK6a_Y-57">
          <mxGeometry x="15.71" width="94.29" height="50" as="geometry" />
        </mxCell>
        <mxCell id="ARTo58OZnLdZcZKK6a_Y-59" value="" style="rounded=0;whiteSpace=wrap;html=1;" vertex="1" parent="ARTo58OZnLdZcZKK6a_Y-57">
          <mxGeometry y="7.142857142857143" width="23.57142857142857" height="10.714285714285715" as="geometry" />
        </mxCell>
        <mxCell id="ARTo58OZnLdZcZKK6a_Y-60" value="" style="rounded=0;whiteSpace=wrap;html=1;" vertex="1" parent="ARTo58OZnLdZcZKK6a_Y-57">
          <mxGeometry y="28.571428571428573" width="23.57142857142857" height="10.714285714285715" as="geometry" />
        </mxCell>
        <mxCell id="ARTo58OZnLdZcZKK6a_Y-61" value="" style="group" vertex="1" connectable="0" parent="1">
          <mxGeometry x="360" y="510" width="110" height="50" as="geometry" />
        </mxCell>
        <mxCell id="ARTo58OZnLdZcZKK6a_Y-62" value="&lt;span style=&quot;font-size: 11px;&quot;&gt;Textures.pas&lt;/span&gt;" style="rounded=0;whiteSpace=wrap;html=1;" vertex="1" parent="ARTo58OZnLdZcZKK6a_Y-61">
          <mxGeometry x="15.71" width="94.29" height="50" as="geometry" />
        </mxCell>
        <mxCell id="ARTo58OZnLdZcZKK6a_Y-63" value="" style="rounded=0;whiteSpace=wrap;html=1;" vertex="1" parent="ARTo58OZnLdZcZKK6a_Y-61">
          <mxGeometry y="7.142857142857143" width="23.57142857142857" height="10.714285714285715" as="geometry" />
        </mxCell>
        <mxCell id="ARTo58OZnLdZcZKK6a_Y-64" value="" style="rounded=0;whiteSpace=wrap;html=1;" vertex="1" parent="ARTo58OZnLdZcZKK6a_Y-61">
          <mxGeometry y="28.571428571428573" width="23.57142857142857" height="10.714285714285715" as="geometry" />
        </mxCell>
        <mxCell id="ARTo58OZnLdZcZKK6a_Y-65" value="" style="endArrow=open;dashed=1;html=1;rounded=0;exitX=0.5;exitY=1;exitDx=0;exitDy=0;endFill=0;entryX=0.75;entryY=0;entryDx=0;entryDy=0;" edge="1" parent="1" source="ARTo58OZnLdZcZKK6a_Y-1" target="ARTo58OZnLdZcZKK6a_Y-62">
          <mxGeometry width="50" height="50" relative="1" as="geometry">
            <mxPoint x="416" y="380" as="sourcePoint" />
            <mxPoint x="549" y="460" as="targetPoint" />
          </mxGeometry>
        </mxCell>
        <mxCell id="ARTo58OZnLdZcZKK6a_Y-66" value="" style="endArrow=open;dashed=1;html=1;rounded=0;exitX=0.25;exitY=1;exitDx=0;exitDy=0;endFill=0;entryX=0.5;entryY=0;entryDx=0;entryDy=0;" edge="1" parent="1" source="ARTo58OZnLdZcZKK6a_Y-1" target="ARTo58OZnLdZcZKK6a_Y-54">
          <mxGeometry width="50" height="50" relative="1" as="geometry">
            <mxPoint x="393" y="380" as="sourcePoint" />
            <mxPoint x="486" y="510" as="targetPoint" />
          </mxGeometry>
        </mxCell>
        <mxCell id="ARTo58OZnLdZcZKK6a_Y-67" value="" style="endArrow=open;dashed=1;html=1;rounded=0;exitX=0;exitY=1;exitDx=0;exitDy=0;endFill=0;entryX=0.75;entryY=0;entryDx=0;entryDy=0;" edge="1" parent="1" source="ARTo58OZnLdZcZKK6a_Y-1" target="ARTo58OZnLdZcZKK6a_Y-58">
          <mxGeometry width="50" height="50" relative="1" as="geometry">
            <mxPoint x="369" y="380" as="sourcePoint" />
            <mxPoint x="318" y="490" as="targetPoint" />
          </mxGeometry>
        </mxCell>
      </root>
    </mxGraphModel>
  </diagram>
</mxfile>
